:SAMPLES-PER-SECOND 30
:FULLY-SPECIFIED
:DEGREES
411
root  -43.01 34.5096 8.22205 25.1817 89.2071 13.0972
RightUpLeg  -20.0429 -7.23692 4.21
RightLeg  18.8448 -5.0138 -1.35737
RightFoot  -2.17952 -0.00544066 0.372265
RightToes  -17.3901 -0.0673927 -0.155514
Spine  1.41853 0.0216129 1.99563
Spine1  2.80611 0.396602 4.10189
HEad  -57.8688 -8.32358 13.3283
LeftShoulder1  -1.94126e-019 -3.10601e-018 -2.51263e-017
LeftArm  -12.463 14.3519 -86.2868
LeftForeArm  31.8863 -34.3958 -5.79681
LeftHand  -0.679404 -2.53574 10.1621
RightShoulder  -4.96962e-017 0 -2.36833e-017
RightArm  -20.235 -10.0677 71.2638
RightForeArm  53.5015 14.2029 1.26923
RightHand  -0.316822 -2.01738 -10.69
LeftUpLeg  -25.6316 26.1822 4.03601
LeftLeg  24.0773 19.8423 7.18954
LeftFoot  17.1465 -0.987527 6.70501
LeftToes  -33.6423 2.40056e-006 -7.68412e-008
412
root  -43.1664 34.5283 8.46831 45.8071 88.8714 33.5989
RightUpLeg  -20.2525 -7.33291 4.23991
RightLeg  18.4743 -4.79772 -1.26576
RightFoot  -2.12465 -0.00444643 0.35139
RightToes  -16.9229 -0.0649777 -0.151633
Spine  1.44909 0.0760158 2.12615
Spine1  2.87415 0.496616 4.33772
HEad  -57.9312 -8.88068 14.5156
LeftShoulder1  -1.94126e-019 -3.10601e-018 -2.51263e-017
LeftArm  -10.9391 15.4536 -86.3436
LeftForeArm  32.6107 -36.2868 -6.24699
LeftHand  -0.697585 -2.6808 10.2498
RightShoulder  -4.96962e-017 0 -2.36833e-017
RightArm  -20.3595 -10.8486 70.5423
RightForeArm  53.0246 14.4423 1.24892
RightHand  -0.315401 -2.05184 -10.7202
LeftUpLeg  -25.4386 25.4658 4.26121
LeftLeg  23.293 19.0112 6.61731
LeftFoot  18.681 -1.11138 6.91082
LeftToes  -34.9957 2.40056e-006 -7.68412e-008
413
root  -43.3324 34.539 8.6991 60.5703 88.5141 48.2203
RightUpLeg  -20.6536 -7.84078 4.26633
RightLeg  18.4104 -4.28429 -1.12567
RightFoot  -2.20386 -0.00412828 0.330844
RightToes  -16.6387 -0.0636049 -0.149632
Spine  1.47765 0.142481 2.25815
Spine1  2.94111 0.610826 4.59446
HEad  -58.4001 -9.06293 15.6092
LeftShoulder1  -1.94126e-019 -3.10601e-018 -2.51263e-017
LeftArm  -8.98599 16.2551 -86.0005
LeftForeArm  33.3723 -37.5714 -6.55054
LeftHand  -0.701341 -2.88933 10.058
RightShoulder  -4.96962e-017 0 -2.36833e-017
RightArm  -20.2143 -11.5531 69.9115
RightForeArm  52.7471 14.5096 1.24631
RightHand  -0.312477 -2.11211 -10.8331
LeftUpLeg  -25.2914 24.4659 4.51471
LeftLeg  22.6007 17.8764 6.00289
LeftFoot  19.9931 -1.18399 6.87122
LeftToes  -35.9609 2.40056e-006 -7.68412e-008
414
root  -43.4789 34.5416 8.9139 77.71 88.2322 65.2728
RightUpLeg  -21.0048 -8.57683 4.27793
RightLeg  18.451 -3.8312 -1.00994
RightFoot  -2.39017 -0.00498458 0.319135
RightToes  -16.2565 -0.0628637 -0.148578
Spine  1.44401 0.18527 2.38431
Spine1  2.88106 0.675776 4.84533
HEad  -59.0108 -8.90444 16.7168
LeftShoulder1  -1.94126e-019 -3.10601e-018 -2.51263e-017
LeftArm  -7.45323 16.8376 -85.55
LeftForeArm  33.9932 -37.8525 -6.59182
LeftHand  -0.691677 -3.18225 9.60308
RightShoulder  -4.96962e-017 0 -2.36833e-017
RightArm  -20.3531 -12.3056 69.4498
RightForeArm  53.2032 14.2115 1.27311
RightHand  -0.313905 -2.12499 -10.9258
LeftUpLeg  -25.1599 23.1087 4.7905
LeftLeg  22.2826 15.9996 5.29673
LeftFoot  20.5146 -1.10332 6.25298
LeftToes  -35.8399 2.40056e-006 -7.68412e-008
415
root  -43.5933 34.5401 9.10144 99.0865 88.0603 86.6028
RightUpLeg  -21.1967 -9.72052 4.45722
RightLeg  18.3672 -3.33662 -0.874699
RightFoot  -2.52963 -0.00495992 0.298248
RightToes  -16.1959 -0.0624115 -0.147933
Spine  1.34208 0.216845 2.61247
Spine1  2.69049 0.71596 5.29994
HEad  -59.7925 -8.43969 17.6313
LeftShoulder1  -1.94126e-019 -3.10601e-018 -2.51263e-017
LeftArm  -6.46001 17.0864 -85.3245
LeftForeArm  33.86 -36.9936 -6.36631
LeftHand  -0.667648 -3.38319 9.07922
RightShoulder  -4.96962e-017 0 -2.36833e-017
RightArm  -21.078 -13.1123 68.9929
RightForeArm  54.1094 13.5936 1.33554
RightHand  -0.305404 -2.33611 -11.3311
LeftUpLeg  -24.76 20.818 5.29598
LeftLeg  21.6895 13.964 4.4822
LeftFoot  19.9501 -0.899018 5.26986
LeftToes  -34.0628 2.40056e-006 -7.68412e-008
